<svg xmlns="http://www.w3.org/2000/svg" width="146.525" height="42.799" viewBox="0 0 146.525 42.799"><path fill="#2D2E83" d="M47.208 15.418c-2.808 1.226-3.523 3.515-3.493 5.484.03 2.006.59 3.388 1.517 4.438.928 1.05 2.274 1.63 4.047 1.63.856 0 1.653.075 2.443-.166.793-.242 1.105-.32 1.905-.82v.926h8.096V10.613c0-1.78-.39-3.028-1.162-3.742-.78-.714-2.136-1.07-4.064-1.07h-7.35c-1.945 0-3.3.35-4.08 1.06-.778.71-1.16 1.962-1.16 3.753v1.518h7.734v-.692c0-.582-.002-.907.186-1.177.188-.268.49-.4.89-.4.434 0 .675.16.86.405.187.248.248.65.248 1.27v.993l-6.618 2.89zm5.556 7.17c-.44 0-.92-.172-.91-.83l.033-2.03c.012-.836.913-1.747 1.677-2.156l.02 4.543c.002.137-.146.472-.82.472zM70.904.237h-7.688v26.733h7.688V.24zm6.742 26.83c2.913-.014 3.14-.545 4.34-1.58v1.322h7.62V5.7h-7.678v14.727c0 .684.073 1.527-.813 1.544-.943.02-.93-1.054-.93-1.543V5.7H72.15v15.87c0 3.403 1.292 5.4 5.496 5.498zM101.23 14.2h7.39v-2.36c0-2.014.17-3.562-.893-4.716-.93-1.01-1.93-1.45-4.058-1.463-2.155-.013-3.043.376-4.513 1.46V5.795H91.51V26.97h7.674V12.21c0-.742.256-1.13.688-1.46.578-.438 1.02-.343 1.242.092.145.282.114.804.114 1.368v1.99zm26.31 7.967V10.645c0-1.777.18-2.924-.83-3.937-.958-.96-2.364-.868-4.242-.868h-7.482c-1.87 0-3.227-.05-4.174.828-1.013.938-.87 2.177-.87 3.977v11.522c0 1.81-.246 2.963.758 4.016.906.953 2.415.788 4.286.788h7.482c1.877 0 3.342.02 4.292-.878 1.008-.952.78-2.138.78-3.925zm-7.85-.85c0 .805-.04 1.467-.927 1.462-.854-.005-.902-.724-.902-1.463v-9.773c0-.57.02-1.536.918-1.536.838 0 .912.872.912 1.536v9.773zm17.04-9.18c0-.784-.054-1.417.88-1.424.837-.006.86.492.86 1.423V26.97h8.027V11.764c0-2.023-.23-3.435-1.132-4.492-.905-1.06-2.443-1.616-4.172-1.616-.852 0-1.654.022-2.408.262-.748.238-1.31.605-2.08 1.105V5.69h-7.596V26.97h7.618V12.137zM7.036 6.49c-1.377 2.465-2.073 5.42-3.172 9.373h11.173l2.205-6.188c5.872-.016 11.742-.032 17.612-.05L37.945.1 17 0C12.92.08 9.33 2.384 7.036 6.49zm25.52-2.32s-3.324.122-5.49.274c-2.164.153-4.512.214-8.78 1.863-4.27 1.648-5.704 5.923-5.704 5.923l-3.933.03s.305-1.373.883-2.84c.58-1.465 2.806-3.632 3.844-4.304 1.036-.672 3.293-2.168 8.964-2.442C28.014 2.4 32.558 4.17 32.558 4.17zm-9.217 6.91l-2.207 6.187-17.61.05-3.09 9.528c6.98.032 13.963.065 20.946.1 4.074-.082 7.665-2.387 9.96-6.493 1.378-2.464 2.072-5.42 3.173-9.372H23.34zm5.503 6.44c-.58 1.467-2.805 3.634-3.842 4.306-1.036.672-3.292 2.168-8.964 2.442-5.672.275-10.215-1.495-10.215-1.495s3.325-.123 5.49-.275c2.165-.153 4.512-.214 8.782-1.863 4.27-1.648 5.702-5.923 5.702-5.923l3.934-.03s-.305 1.374-.885 2.84zM5.315 38.5c-.582-.31-1.56-.46-2.03-.564-1.14-.232-1.86-.533-1.86-1.318 0-.415.296-.82.806-1.04.744-.323 1.983-.3 3.26.682l.705-.798c-.72-.554-1.536-.913-2.34-1.04-.745-.114-1.477-.032-2.095.243-.422.186-.782.45-1.042.774-.26.356-.41.763-.41 1.19 0 .762.4 1.386 1.14 1.803.56.3 1.947.566 2.033.578.968.173 1.96.485 1.96 1.353 0 .703-.558 1.05-.88 1.19-.484.206-1.09.252-1.71.127-.73-.14-1.462-.496-2.12-1.03l-.73.775c.805.647 1.71 1.074 2.627 1.248.298.058.594.092.892.092.544 0 1.027-.068 1.5-.288.445-.207.84-.475 1.1-.82.286-.382.423-.82.423-1.294 0-.8-.422-1.446-1.228-1.863zm5.304-1.028L8.3 34.457H6.94l3.11 4.066v4.16h1.13v-4.16l3.11-4.066h-1.352l-2.317 3.015zm9.886 1.028c-.583-.31-1.562-.46-2.03-.564-1.142-.232-1.86-.533-1.86-1.318 0-.415.296-.82.804-1.04.745-.323 1.982-.3 3.26.682l.706-.798c-.72-.554-1.536-.913-2.342-1.04-.744-.114-1.475-.032-2.094.243-.422.186-.78.45-1.042.774-.26.356-.408.763-.408 1.19 0 .762.396 1.386 1.14 1.803.558.3 1.945.566 2.03.578.968.173 1.96.485 1.96 1.353 0 .703-.557 1.05-.88 1.19-.483.206-1.09.252-1.71.127-.73-.14-1.14-.496-1.797-1.03l-.73.775c.805.647 1.388 1.074 2.304 1.248.297.058.595.092.893.092.545 0 1.027-.068 1.498-.288.447-.207.843-.475 1.104-.82.285-.382.42-.82.42-1.294 0-.8-.42-1.446-1.226-1.863zm1.76-3.026h2.974v7.21h1.114v-7.21h2.974v-1.018h-7.062v1.018zm10.394 3.578h3.57v-1.027h-3.57V35.45h3.495v-.994h-4.61v8.23h4.82v-1.02H32.66v-2.614zm9.962-1.082l-2.74-3.514H38.72v8.23h1.104V36.12l2.8 3.582 2.812-3.582v6.564h1.104v-8.23H45.36l-2.738 3.516zm9.54-.498l-2.317-3.015h-1.363l3.11 4.066v4.16h1.128v-4.16l3.11-4.066h-1.35l-2.317 3.015zm11.647-3.016l-3.396 8.23h1.19l.978-2.393h3.607l.977 2.392h1.202l-3.41-8.23h-1.15zm-.793 4.818l1.374-3.327 1.365 3.327h-2.738zm8.61-4.818H70.51v8.23h4.983V41.68h-3.867v-7.224zm11.622 5.212c0 1.168-1.004 2.127-2.256 2.127-1.24 0-2.256-.96-2.256-2.127v-5.212h-1.103v5.212c0 1.733 1.51 3.13 3.358 3.13 1.857 0 3.37-1.396 3.37-3.13v-5.212h-1.115v5.212zm7.965-1.698l-2.738-3.514h-1.163v8.23h1.1V36.12l2.802 3.582 2.813-3.582v6.564h1.102v-8.23h-1.177l-2.74 3.516zm6.827 4.714h1.115v-8.228h-1.115v8.228zm11.003-1.722l-5.674-6.506h-1.216v8.23h1.115v-6.507l5.687 6.505h1.202v-8.23h-1.115v6.507zm3.914 1.722h1.115v-8.228h-1.116v8.228zm8.35-8.482c-2.54 0-4.608 1.93-4.608 4.31 0 2.37 2.067 4.287 4.607 4.287s4.622-1.917 4.622-4.287c0-2.38-2.082-4.31-4.623-4.31zm0 7.58c-1.933 0-3.495-1.478-3.495-3.27 0-1.803 1.563-3.293 3.494-3.293 1.934 0 3.494 1.49 3.494 3.292 0 1.792-1.56 3.27-3.495 3.27zm14.844-1.738l-2.403-5.563h-1.25l-2.096 5.564-2.367-5.588h-1.165l3.334 8.228 2.913-7.14 2.826 7.14 3.43-8.228h-1.164l-2.058 5.588zm6.664 1.622v-2.614h3.248v-1.027h-3.248V35.45h3.495v-.994h-4.61v8.23h4.822v-1.02h-3.707z"/></svg>